<svg xmlns="http://www.w3.org/2000/svg" viewBox="0 0 1024 1024"><defs><style>.cls-1{isolation:isolate;}.cls-2{fill:#374150;}.cls-3{fill:#f29100;}.cls-4{fill:#4d5a6e;}.cls-5{fill:#292f40;}.cls-6{opacity:0.24;mix-blend-mode:multiply;}.cls-7{fill:#cd1341;}.cls-8{fill:#00867d;}.cls-9{fill:#00a09a;}.cls-10{fill:#d9d9d9;}.cls-11{fill:#575756;}.cls-12{fill:#f5f5f5;}.cls-13{font-size:132.37px;font-family:MyriadPro-Regular, Myriad Pro;}.cls-13,.cls-20{fill:#fff;}.cls-14{fill:#424e61;}.cls-15{fill:#b0f0ff;}.cls-16{fill:#e7e7e7;}.cls-17{fill:#363f52;}.cls-18{fill:#e85153;}.cls-19{fill:#6cdaf5;}.cls-20{font-size:44.22px;font-family:PTSans-Regular, PT Sans;letter-spacing:0.3em;}.cls-21{fill:#00a9bc;}</style></defs><g class="cls-1"><g id="Layer_1" data-name="Layer 1"><path class="cls-2" d="M363.13,188.66H948.59a34.08,34.08,0,0,1,34.08,34.08V607a0,0,0,0,1,0,0H329.06a0,0,0,0,1,0,0V222.74A34.08,34.08,0,0,1,363.13,188.66Z"/><rect class="cls-3" x="361.07" y="220.67" width="589.59" height="354.3"/><path class="cls-4" d="M984.33,646.51l-651,1.29a39.82,39.82,0,0,0-17.67-8.44c-8.05-1.51-11.79.65-15.87-1.45-4.37-2.26-8.71-9.23-7.25-30.9l726.58,0h0c.23,1.14,3.44,18.55-9.37,30.74C999.47,647.53,986.43,646.68,984.33,646.51Z"/><path class="cls-5" d="M1019.16,616.23v8.47A23.14,23.14,0,0,1,996,647.82H315.69a23.11,23.11,0,0,1-23.12-23.11v-8.46a23.11,23.11,0,0,0,23.12,23.11H996A23.14,23.14,0,0,0,1019.16,616.23Z"/><g class="cls-6"><path class="cls-7" d="M568.09,341.72V463H487C452.2,463,424,435.85,424,402.36a59.27,59.27,0,0,1,18.48-42.88A64.21,64.21,0,0,1,487,341.72Z"/></g><path class="cls-8" d="M563.55,337.18V458.46h-81c-34.84,0-63.1-27.14-63.1-60.64a59.33,59.33,0,0,1,18.48-42.88,64.22,64.22,0,0,1,44.62-17.76Z"/><g class="cls-6"><path class="cls-7" d="M896.85,402.36a59.29,59.29,0,0,1-18.48,42.88A64.22,64.22,0,0,1,833.75,463H568.09V341.72H833.75C868.61,341.72,896.85,368.87,896.85,402.36Z"/></g><path class="cls-9" d="M892.31,397.82a59.27,59.27,0,0,1-18.48,42.88,64.2,64.2,0,0,1-44.61,17.76H563.55V337.18H829.22C864.07,337.18,892.31,364.34,892.31,397.82Z"/><path class="cls-10" d="M494.79,426.69H493a24.08,24.08,0,0,1-24-24.05V377.47a24.08,24.08,0,0,1,24-24.05h1.76a24.08,24.08,0,0,1,24.05,24.05v25.17A24.08,24.08,0,0,1,494.79,426.69ZM493,360.42a17.07,17.07,0,0,0-17,17.05v25.17a17.07,17.07,0,0,0,17,17.05h1.76a17.07,17.07,0,0,0,17-17.05V377.47a17.07,17.07,0,0,0-17-17.05Z"/><rect class="cls-11" x="482.99" y="393.02" width="20" height="30.17"/><path class="cls-12" d="M493.71,381.46h27.73a3.85,3.85,0,0,1,3.88,2.54,4.86,4.86,0,0,1,.29,1.78q0,21.29,0,42.57a4,4,0,0,1-4.33,4.27H466.14a3.89,3.89,0,0,1-4-2.41,5.52,5.52,0,0,1-.34-2.07q0-16.65,0-33.3c0-3,0-6,0-9a5.4,5.4,0,0,1,.41-2.11,3.73,3.73,0,0,1,3.64-2.27Zm.22,37.7c.92,0,1.83,0,2.75,0,.38,0,.53-.14.5-.53s0-.93-.05-1.39c-.16-2.8-.32-5.61-.49-8.41a.67.67,0,0,1,.33-.68,5.56,5.56,0,1,0-6,.12.63.63,0,0,1,.28.43c0,.74-.12,1.48-.16,2.21-.15,2.57-.29,5.13-.45,7.69,0,.46.16.56.57.56C492.14,419.15,493,419.16,493.93,419.16Z"/><text class="cls-13" transform="translate(592 465.2)">*</text><text class="cls-13" transform="translate(661.72 465.2)">*</text><text class="cls-13" transform="translate(731.44 465.2)">*</text><text class="cls-13" transform="translate(801.16 465.2)">*</text><rect class="cls-14" x="80.53" y="210.28" width="298.9" height="603.43" rx="37.73" transform="translate(-147.14 96.29) rotate(-18.02)"/><rect class="cls-15" x="98.3" y="279.96" width="263.36" height="464.08" transform="translate(-147.14 96.29) rotate(-18.02)"/><circle class="cls-16" cx="311.35" cy="762.05" r="18.4"/><circle class="cls-16" cx="99.78" cy="277.13" r="3.08"/><rect class="cls-16" x="120.41" y="258.75" width="60.14" height="3.77" rx="1.89" transform="translate(-73.26 59.35) rotate(-18.02)"/><path class="cls-17" d="M450.29,706l3,9.36a39.21,39.21,0,0,1-25.18,49.41L218.52,833a39.21,39.21,0,0,1-49.43-25.14L166,798.52a39.22,39.22,0,0,0,49.44,25.14l209.64-68.21A39.22,39.22,0,0,0,450.29,706Z"/><g class="cls-6"><path class="cls-7" d="M319.52,420a28.13,28.13,0,0,1-2,22.08A30.47,30.47,0,0,1,300,456.62l-156.48,51c-15.73,5.12-32.47-3-37.4-18.1a28.13,28.13,0,0,1,2-22.06,30.46,30.46,0,0,1,17.53-14.57l156.48-51C297.87,396.76,314.6,404.87,319.52,420Z"/></g><path class="cls-18" d="M317.37,417.82a28.18,28.18,0,0,1-2,22.08,30.53,30.53,0,0,1-17.53,14.57l-156.47,51c-15.73,5.12-32.47-3-37.4-18.1a28.16,28.16,0,0,1,2-22.07A30.53,30.53,0,0,1,123.5,450.7l156.47-51C295.71,394.61,312.45,402.71,317.37,417.82Z"/><rect class="cls-19" x="32.41" y="290.37" width="263.35" height="38.21" transform="translate(-87.78 66.04) rotate(-18.04)"/><rect class="cls-19" x="146.49" y="582.92" width="263.35" height="153.58" transform="translate(-190.64 118.59) rotate(-18.04)"/><text class="cls-20" transform="translate(155.18 486.63) rotate(-18.04)">3899</text><path class="cls-21" d="M227.2,644.67a6,6,0,0,1-2.32-3.18h0a10.66,10.66,0,0,1,.39-6.53h0a16.41,16.41,0,0,1,3.36-5.71h0a7.62,7.62,0,0,1,3.06-2.12h0a5.23,5.23,0,0,1,.66-.15h0a6.51,6.51,0,0,1,4.35.74h0a6.33,6.33,0,0,1,.61.39h0c-.24-1.16-.55-2.61-.87-4.11h0c-.76-3.53-1.64-7.43-2-8.59h0a1.22,1.22,0,0,0-.07-.21h0a8,8,0,0,1-.89-1.82h0a2.29,2.29,0,0,1-.1-1.23h0a1.46,1.46,0,0,1,1-1.07h0a3,3,0,0,1,3.76,2h0a3.11,3.11,0,0,1,.14,1h0v0h0v0h0s0,.06,0,.11h0c0,.11,0,.27.06.46h0c.06.37.15.89.26,1.5h0c.23,1.24.56,2.87.95,4.66h0c.7,3.26,1.58,7.05,2.34,9.84h0a3.68,3.68,0,0,1,1.08.15h0a1.89,1.89,0,0,1,1,.76h0a3.86,3.86,0,0,1,.37.77h0a1.88,1.88,0,0,1,0,1.26h0a2.18,2.18,0,0,1-.63.87h0c-.3.27-.61.48-.92.71h0a14.18,14.18,0,0,1,.77,1.86h0a4.6,4.6,0,0,1,.24,1.1h0a2,2,0,0,1-.23,1.22h0a1.41,1.41,0,0,1-.81.64h0l-.19,0h0A3.28,3.28,0,0,1,241,640h0a2.26,2.26,0,0,1-1.08-.8h0a4.82,4.82,0,0,1-.29-.45h0c-.49.57-1.15,1.32-1.93,2.11h0a16.91,16.91,0,0,1-6.2,4.32h0l0,0h0a4.73,4.73,0,0,1-4.23-.51Zm2.33-9.77c-.89,2-1.21,4.38-.82,5.54h0a1.33,1.33,0,0,0,.58.81h0a1.5,1.5,0,0,0,1.26.06h0a10.1,10.1,0,0,0,3.54-2.66h0c1.17-1.19,2.37-2.63,3.53-4h0c-.16-.28-.37-.64-.63-1h0a9.07,9.07,0,0,0-2.2-2.44h0a2.23,2.23,0,0,0-1.5-.48h0a2.09,2.09,0,0,0-.34.08h0l-.06,0h0c-1.13.35-2.53,2-3.36,4.07Zm19.9.25a17.43,17.43,0,0,1-3.7-4.44h0a44.41,44.41,0,0,1-3.7-7.85h0l-.12-.32h0a2.39,2.39,0,0,1,0-1.54h0a1.6,1.6,0,0,1,1-1h0a1.3,1.3,0,0,1,.33-.07h0a2.26,2.26,0,0,1,2,.56h0a2.74,2.74,0,0,1,.69,1.14h0v0l.3,1h0a36.27,36.27,0,0,0,2.55,6.26h0a8.82,8.82,0,0,0,2.46,3.12h0a1.13,1.13,0,0,0,1,.24h0a1.43,1.43,0,0,0,.51-.33h0a4.27,4.27,0,0,0,1.1-2.49h0a13.21,13.21,0,0,0,0-3.49h0a31.47,31.47,0,0,0-1.19-5.09h0s0-.09-.05-.14h0a2.73,2.73,0,0,1-.11-1.4h0a2,2,0,0,1,1.42-1.4h0l.13,0h0a1.87,1.87,0,0,1,1.33.12h0a2.5,2.5,0,0,1,.81.66h0a4.19,4.19,0,0,1,.57,1h0l0,.08v.09c.09.48.6,2.53.95,4.95h0a21.91,21.91,0,0,1,0,7.62h0a5.18,5.18,0,0,1-2.61,3.69h0a5.22,5.22,0,0,1-.67.27h0a5.36,5.36,0,0,1-5-1.21Zm17.28-1.32a2,2,0,0,1-.33.08h0a2.34,2.34,0,0,1-1.82-.41h0a2.11,2.11,0,0,1-.6-.73h-.23a2,2,0,0,1-1.44-.51h0l0,0,0,0a1,1,0,0,1-.14-.23h0l-.05-.11h0l-.1-.26h0l-.31-.83h0c-.24-.69-.56-1.64-.9-2.73h0a78.8,78.8,0,0,1-2.05-7.67h0a2.51,2.51,0,0,1-1-1.13h0v0l-.06-.14h0a2,2,0,0,1,.17-1.45h0a3.34,3.34,0,0,1,.49-.75h0c0-.11,0-.25,0-.41h0c0-.51-.11-1.23-.21-2.05h0a31,31,0,0,0-1.05-5.29h0a1.83,1.83,0,0,0-.08-.25h0a3.6,3.6,0,0,0-.38-.66h0a5.28,5.28,0,0,1-.6-1.19h0a1.9,1.9,0,0,1,0-1.33h0a2,2,0,0,1,1.1-1h0l.17-.07h0a1.73,1.73,0,0,1,1.22.1h0a3.17,3.17,0,0,1,1,.67h0a6,6,0,0,1,1.47,2.44h0l.09.27h0a14.67,14.67,0,0,1,.62,3.35h0c.09.93.17,2,.36,3.44h0a16.77,16.77,0,0,1,4.69-.74h0a7.69,7.69,0,0,1,5.92,2.29h0a3.38,3.38,0,0,1,.74,1.28h0a7,7,0,0,1-.08,3.62h0a22.45,22.45,0,0,1-1.42,3.9h0a64.33,64.33,0,0,1-3.39,6.21h0l-.38.63h0a2.62,2.62,0,0,0-.22.57h0a1.88,1.88,0,0,1-.38.77h0a1.43,1.43,0,0,1-.66.42h0Zm-3.09-9.38a44.28,44.28,0,0,0,1.68,4.48h0c.29-.42.63-.93,1-1.5h0a26.78,26.78,0,0,0,2.77-5.47h0a4.91,4.91,0,0,0,.32-2.78h0a1.21,1.21,0,0,0-.26-.45h0a3.34,3.34,0,0,0-2.29-.64h0a12.15,12.15,0,0,0-3.61.58h0c-.25.08-.5.16-.73.26h0c0,.28.08.64.15,1.05h0a33.92,33.92,0,0,0,.74,3.66h0c.09.28.17.55.25.81Zm17.32,6a2.71,2.71,0,0,1-1.54-.06h0a1.66,1.66,0,0,1-.9-.75h0a7.11,7.11,0,0,1-.54-1h0a32.37,32.37,0,0,1-1.13-3.15h0c-1.55-4.9-3.39-12.62-4.45-17.12h0c-.54-2.28-1-4.22-1.39-5.74h0a16.76,16.76,0,0,1-.59-3.36h0a1.69,1.69,0,0,1,.17-.78h0v0a2.14,2.14,0,0,1,1.19-1h0a2.61,2.61,0,0,1,2,.34h0a2.18,2.18,0,0,1,.7.63h0a3.69,3.69,0,0,1,.42.92h0c.25.82.45,2,.82,4h0c.36,2,.89,4.92,1.76,9.07h0c.68,3.25,1.53,6.51,2.41,9.3h0a49.65,49.65,0,0,0,1.7,4.68h0v0c.06.17.15.39.22.64h0a5.92,5.92,0,0,1,.28,1.22h0a2.45,2.45,0,0,1-.22,1.44h0a1.61,1.61,0,0,1-.92.77h0Zm5.44-4.66.13-.91-.13.91a6,6,0,0,1-3.12-1.73h0a9.16,9.16,0,0,1-2.31-3.75h0a8.89,8.89,0,0,1-.37-3.5h0a20,20,0,0,1,1.56-6.73h0a6.2,6.2,0,0,1,3.07-3.23h0l.33-.12h0a6.21,6.21,0,0,1,4,.24h0a8.17,8.17,0,0,1,4.22,4h0a12.5,12.5,0,0,1,.65,1.6h0a10.46,10.46,0,0,1-1,8.36h0a9.87,9.87,0,0,1-5.17,4.63h0a4.22,4.22,0,0,1-1.86.19Zm.73-15.17a1.62,1.62,0,0,0-.25.19h0a4.83,4.83,0,0,0-.88,1h0a11.28,11.28,0,0,0-1.4,6h0a3.79,3.79,0,0,0,.2,1.19h0a5.21,5.21,0,0,0,1.06,1.9h0a1.91,1.91,0,0,0,1.32.76h0a1,1,0,0,0,.35-.06h0a4.62,4.62,0,0,0,2-1.84h0a6.87,6.87,0,0,0,1.14-2.63h0v0a8.63,8.63,0,0,0-.13-3.85h0a5,5,0,0,0-1.15-2h0a2.8,2.8,0,0,0-1-.84h0a1.94,1.94,0,0,0-.81-.12h0l-.39.2h0l-.05,0Zm-.3-.13-.13-.68.13.68ZM209.5,641a15.11,15.11,0,0,1,1.63-3.81,17.53,17.53,0,0,1,6-5.46l1.26-.27a5.5,5.5,0,0,1,3.14.43c.95.45,1.48,1.43,1.61,3a5.6,5.6,0,0,1-1.54,4.25,12.93,12.93,0,0,1-4.15,3.12c-1.6.77-2.44,1.36-2.5,1.77s.29.78,1,1.13,2.34.38,4.73.1a20,20,0,0,0,5.75-1.37,21.11,21.11,0,0,0,3.45-1.87c.86-.6,2.21.08,2.71-.15s1,0,1.44.61c-.72,1.52-2.26,1.6-3.28,2.44a21.66,21.66,0,0,1-4,2.47,26.17,26.17,0,0,1-6.09,2l-1.49.26a18.25,18.25,0,0,1-5.61-.16,6.48,6.48,0,0,1-2.46-1.26,6.28,6.28,0,0,1-1.59-2.64A11.13,11.13,0,0,1,209.5,641Zm4.27.07a14.32,14.32,0,0,0,4.13-2.87c.64-.79.86-1.45.65-2s-.82-.41-1.86.37a6.58,6.58,0,0,0-2,2.2A18.62,18.62,0,0,0,213.77,641.08Z"/><path class="cls-21" d="M294.68,639.31a18.2,18.2,0,0,1-10.12-1.52h0a1.48,1.48,0,0,1-.8-.87h0a1,1,0,0,1-.06-.25h0a2.07,2.07,0,0,1,.24-1.29h0a2.19,2.19,0,0,1,1-.92h0a1,1,0,0,1,.21-.09h0a1.74,1.74,0,0,1,1.28.11h0a11.08,11.08,0,0,0,2.93.84h0a19.69,19.69,0,0,0,3.18.27h0a21.08,21.08,0,0,0,4.68-.55h0c.5-.12,1-.26,1.48-.42h0a18.31,18.31,0,0,0,2.89-1.23h0A18.5,18.5,0,0,0,305,631h0a9,9,0,0,0,2.54-5.58h0a24.43,24.43,0,0,0-1.11-7.62h0c-.14.42-.3.83-.48,1.24h0a9.21,9.21,0,0,1-1.18,2h0a6.55,6.55,0,0,1-2.18,1.78h0a2.3,2.3,0,0,1-.43.18h0a2.74,2.74,0,0,1-1.24.11h0a4.41,4.41,0,0,1-1.5-.48h0a6.29,6.29,0,0,1-2.87-3.43h0l-.15-.43h0a11,11,0,0,1-.46-4.34h0a27.34,27.34,0,0,1,.87-4.8h0c.1-.38.31-1,.65-1.89h0a18,18,0,0,1,1.34-2.77h0a11.94,11.94,0,0,1,2-2.52h0a4.19,4.19,0,0,1,1.64-1h0a3.47,3.47,0,0,1,1-.18h0a1.67,1.67,0,0,1,.61.09h0a.68.68,0,0,1,.4.41h0a.45.45,0,0,1,0,.11h0a1.86,1.86,0,0,1-.18,1h0l.14-.05h0a2.65,2.65,0,0,1,.6-.13h0a1.81,1.81,0,0,1,2.23,1.14h0l.05.15h0c.62,2.48,1.23,5,1.85,7.44h0c.62,2.49,1.11,5,1.59,7.51h0a28.52,28.52,0,0,1,.63,6.52h0a11.94,11.94,0,0,1-.44,3h0a11.76,11.76,0,0,1-2.4,4.28h0a17.67,17.67,0,0,1-3.89,3.3h0a21.69,21.69,0,0,1-4.85,2.26h0a25.22,25.22,0,0,1-5.13,1.09Zm8.17-34.11a6.79,6.79,0,0,0-.53,1.08h0c-.17.41-.34.83-.52,1.29h0a12.53,12.53,0,0,0-.74,2.47h0c-.14.81-.27,1.64-.39,2.48h0a11.59,11.59,0,0,0,0,5h0l0,0h0a4.82,4.82,0,0,0,.56,1.23h0c.17.24.29.3.37.31h0s0,0,.06,0h0a1.37,1.37,0,0,0,.16-.25h0a7.44,7.44,0,0,0,.41-1h0a24,24,0,0,0,.8-4.34h0a34,34,0,0,0,.18-4.39h0l-.09-4.32h0c-.13.2-.24.38-.33.55Z"/><path class="cls-21" d="M315.92,618.27a9.54,9.54,0,0,1-3.77-1.79h0a1.44,1.44,0,0,1-.49-.68h0a1.54,1.54,0,0,1-.06-.57h0a2.53,2.53,0,0,1,.44-1.3h0a2.45,2.45,0,0,1,1-.87h0l.15,0h0a1.29,1.29,0,0,1,1.2.22h0a6.53,6.53,0,0,0,2.27,1.07h0a1.44,1.44,0,0,0,.82,0h0a1.22,1.22,0,0,0,.71-.71h0a.22.22,0,0,1,0-.08h0c0-.06,0-.13,0-.22h0a2.54,2.54,0,0,0-.14-.9h0v0h0a4,4,0,0,0-.73-1.23h0a4.53,4.53,0,0,0-1.8-1.21h0a13.29,13.29,0,0,0-1.38-.49h0a5.24,5.24,0,0,1-1.44-.66h0a4.37,4.37,0,0,1-1.82-2.35h0a6.23,6.23,0,0,1-.21-.9h0a5.84,5.84,0,0,1,1.05-4.35h0a10.18,10.18,0,0,1,3.23-3.06h0l.28-.13h0a1.19,1.19,0,0,1,1,.12h0a1.35,1.35,0,0,1,.63.76h0a1.27,1.27,0,0,1,.06.28h0a2.4,2.4,0,0,1-.89,2.18h0a6.9,6.9,0,0,0-.86,1h0a4.93,4.93,0,0,0-.71,1.28h0a2.1,2.1,0,0,0-.11,1.2h0s0,.06,0,.08h0a1.22,1.22,0,0,0,.78.7h0a12.73,12.73,0,0,0,1.56.58h0a6.88,6.88,0,0,1,1.6.76h0a13.51,13.51,0,0,1,1.84,1.42h0a5.69,5.69,0,0,1,1.41,1.93h0c.1.23.19.47.27.71h0a6.84,6.84,0,0,1,.26,3.15h0A4.83,4.83,0,0,1,320,617.4h0a5.38,5.38,0,0,1-1.5.78h0a4.81,4.81,0,0,1-2.61.09Zm2.57-4.68-.08-.22.08.22Zm-.14-.05-.09,0,.09,0Z"/><path class="cls-21" d="M304.25,594.29c.15-.51.33-1,.95-1.12a1,1,0,0,1,1.14.73,1.9,1.9,0,0,1-.08.94l-.82,2.92c-.14.51-.32,1-.95,1.12a1,1,0,0,1-1.14-.73,1.92,1.92,0,0,1,.09-.94Z"/><path class="cls-21" d="M298.54,595.64a1.32,1.32,0,0,1,.09-1.47,1,1,0,0,1,1.34-.11,2,2,0,0,1,.51.8l1.1,2.83a1.3,1.3,0,0,1-.08,1.47,1,1,0,0,1-1.35.11,2,2,0,0,1-.5-.8Z"/><path class="cls-21" d="M294.41,598.67a1.3,1.3,0,0,1-.5-1.39,1,1,0,0,1,1.2-.63,2.06,2.06,0,0,1,.77.55l2.12,2.17a1.31,1.31,0,0,1,.49,1.39,1,1,0,0,1-1.19.63,2,2,0,0,1-.78-.55Z"/><path class="cls-21" d="M295.48,602.43c.51.12,1,.28,1.16.9a1,1,0,0,1-.67,1.18,2,2,0,0,1-.94,0l-2.95-.69c-.51-.12-1-.28-1.16-.9a1,1,0,0,1,.67-1.18,2,2,0,0,1,.94,0Z"/><path class="cls-21" d="M309.06,596.23c.34-.41.7-.78,1.32-.64a1,1,0,0,1,.76,1.13,2.06,2.06,0,0,1-.46.83l-1.93,2.33c-.34.41-.69.78-1.32.64a1,1,0,0,1-.75-1.13,2,2,0,0,1,.46-.83Z"/></g></g></svg>